<?xml version="1.0" standalone="no"?>
<!DOCTYPE svg PUBLIC "-//W3C//DTD SVG 20010904//EN"
 "http://www.w3.org/TR/2001/REC-SVG-20010904/DTD/svg10.dtd">
<svg version="1.0" xmlns="http://www.w3.org/2000/svg"
 width="139.000000pt" height="139.000000pt" viewBox="0 0 139.000000 139.000000"
 preserveAspectRatio="xMidYMid meet">
<metadata>
Created by potrace 1.11, written by Peter Selinger 2001-2013
</metadata>
<g transform="translate(0.000000,139.000000) scale(0.100000,-0.100000)"
fill="#000000" stroke="none">
<path d="M930 1379 c-14 -8 -75 -32 -75 -29 0 5 -105 -53 -110 -60 -4 -6 -11
-8 -16 -5 -5 4 -9 1 -9 -4 0 -6 -6 -11 -13 -11 -14 0 -118 -68 -129 -84 -4 -6
-8 -7 -8 -3 0 8 -58 -37 -139 -108 -81 -71 -211 -210 -211 -225 0 -5 -6 -13
-13 -17 -13 -8 -83 -144 -89 -173 -2 -8 -6 -17 -10 -20 -22 -17 -35 -170 -29
-345 1 -22 0 -52 -2 -67 -2 -14 -1 -31 2 -36 3 -5 53 -48 110 -96 99 -82 107
-86 140 -80 20 3 59 8 86 10 28 1 61 5 75 8 66 14 76 17 95 20 35 7 134 47
141 57 3 5 10 7 15 4 5 -4 9 -2 9 3 0 5 18 21 41 36 55 37 126 108 189 190 63
82 174 263 192 312 6 18 16 34 22 34 5 0 6 3 3 7 -4 3 -3 11 2 17 9 12 70 178
77 210 2 10 10 42 18 70 20 71 26 115 16 121 -5 3 -55 -40 -111 -97 -57 -56
-104 -97 -106 -91 -4 10 54 123 87 173 6 8 16 26 22 40 7 14 16 27 20 30 12 9
14 52 2 57 -6 2 -33 -18 -61 -44 -107 -101 -155 -143 -163 -143 -5 0 -13 -7
-18 -16 -6 -11 -12 -13 -16 -6 -4 7 5 33 20 59 14 27 42 77 62 113 19 36 41
72 48 80 12 15 17 34 15 58 -2 20 -29 1 -99 -67 -34 -34 -64 -61 -67 -61 -3 0
-24 -18 -47 -40 -40 -37 -58 -48 -58 -35 0 18 117 207 133 213 4 2 5 8 1 13
-3 5 0 9 5 9 6 0 11 7 11 15 0 17 -36 19 -60 4z"/>
</g>
</svg>
